<svg width="807" height="625" viewBox="0 0 807 625" fill="none" xmlns="http://www.w3.org/2000/svg">
<path d="M590.467 6.93329C588.067 11.2 571.667 42.4 553.933 76.2666C536.2 110.133 521.533 137.6 521.267 137.333C520.867 136.933 506.467 107.467 473.533 39.3333L455.933 2.66663L417.133 1.99996C395.8 1.59996 378.333 1.73329 378.333 2.26663C378.333 2.66663 388.467 23.8666 401 49.3333C415.533 79.0666 422.733 95.2 421.267 94.6666C405.4 87.8666 371.933 85.4666 351.667 89.7333C326.067 94.9333 303.133 107.867 284.333 127.6C267.133 145.467 256.333 164.4 250.2 187.333C247.533 197.067 247.133 201.867 247.133 221.333C247.133 238.933 247.667 246 249.4 252.667C256.867 279.867 268.333 300.267 285.8 317.6L295.533 327.2L284.6 338.267C266.333 356.667 259.267 373.733 259.4 399.333C259.4 412.133 259.933 416.4 262.867 425.333C267.667 440.267 274.733 451.333 286.333 462.533C302.867 478.267 320.467 485.067 344.333 485.067C369.133 485.067 386.733 477.733 404.333 460.133C421.8 442.533 429.533 423.733 429.533 398.667C429.533 383.2 427 372.533 420.467 359.333L415.933 350.267L425.667 346.667C446.2 339.2 471 320 484.467 301.333C491.133 291.867 500.2 273.6 503.267 263.333L505.4 256L510.867 267.6C513.933 274 516.6 279.333 517 279.333C517.4 279.333 527.4 259.067 539.133 234.267C584.2 140.267 592.333 123.467 593 123.467C593.533 123.333 614.733 163.867 660.6 253.2L673 277.067L684.2 253.867C690.333 241.067 703 215.067 712.333 196C727.8 164.4 745.933 127.067 790.467 35.4666C799.267 17.6 806.333 2.53329 806.333 2.13329C806.333 1.73329 789.933 1.46663 769.933 1.73329L733.667 2.13329L726.067 18.4C710.6 51.4666 669.133 138.267 668.6 138.933C668.2 139.2 663.933 131.6 659 121.733C654.067 112 642.2 88.9333 632.733 70.6666C623.133 52.2666 611.133 29.2 606.067 19.3333C600.867 9.46663 596.333 0.799958 595.667 0.266625C595.133 -0.400042 592.733 2.66663 590.467 6.93329ZM400.6 144C418.2 149.6 436.067 163.867 445.4 179.6C451.4 189.867 455.8 205.333 456.6 218.667C459.267 267.467 422.333 305.6 374.333 302.933C358.867 302.133 347 298.533 335.8 291.333C307 272.667 293 237.733 300.333 202.8C306.333 174.4 329.133 150.267 357.133 142.8C369.133 139.6 388.333 140.133 400.6 144ZM354.467 354.8C377.667 360.133 391.667 378.667 390.067 402.133C388.867 418.133 378.733 432.933 363.533 440.8C354.733 445.333 338.867 445.867 328.733 442C313.933 436.4 302.333 422.267 299.933 406.667C296.333 384.133 307.4 364.667 328.867 355.733C337.8 352.133 342.067 352 354.467 354.8Z" fill="#F8F8F8"/>
<path d="M177 50.9333V100.667H111H45V51.3333V1.99999H22.7333H0.333313L0.59998 130.133L0.866646 258.133L23 258.4L45 258.667V200.267V142H111H177V223.333V304.667H88.7333H0.333313V326.667V348.667H88.7333H177V486.667V624.667H198.333H219.667V486.667V348.667H238.333H257V326.667V304.667H238.333H219.667V153.333V2.13332L198.333 1.73332L177 1.33332V50.9333Z" fill="#F8F8F8"/>
</svg>
